<mxfile host="app.diagrams.net" modified="2023-01-24T03:41:59.197Z" agent="5.0 (Windows NT 10.0; Win64; x64) AppleWebKit/537.36 (KHTML, like Gecko) Chrome/109.0.0.0 Safari/537.36" version="20.8.5" etag="KhuPF523PINlPgYJUW1Y" type="github">
  <diagram id="ZaLg4BPcEg48AhX7MnSh" name="Page-1">
    <mxGraphModel dx="875" dy="516" grid="1" gridSize="10" guides="1" tooltips="1" connect="1" arrows="1" fold="1" page="1" pageScale="1" pageWidth="850" pageHeight="1100" math="0" shadow="0">
      <root>
        <mxCell id="0" />
        <mxCell id="1" parent="0" />
        <mxCell id="a2wgtuCniFXXvtAZj5P6-29" value="" style="shape=cube;whiteSpace=wrap;html=1;boundedLbl=1;backgroundOutline=1;darkOpacity=0.05;darkOpacity2=0.1;size=10;" vertex="1" parent="1">
          <mxGeometry x="320" y="280" width="50" height="50" as="geometry" />
        </mxCell>
        <mxCell id="a2wgtuCniFXXvtAZj5P6-30" value="" style="shape=cube;whiteSpace=wrap;html=1;boundedLbl=1;backgroundOutline=1;darkOpacity=0.05;darkOpacity2=0.1;size=10;" vertex="1" parent="1">
          <mxGeometry x="280" y="280" width="50" height="50" as="geometry" />
        </mxCell>
        <mxCell id="a2wgtuCniFXXvtAZj5P6-19" value="" style="shape=cube;whiteSpace=wrap;html=1;boundedLbl=1;backgroundOutline=1;darkOpacity=0.05;darkOpacity2=0.1;size=10;" vertex="1" parent="1">
          <mxGeometry x="240" y="280" width="50" height="50" as="geometry" />
        </mxCell>
        <mxCell id="a2wgtuCniFXXvtAZj5P6-1" value="" style="shape=cube;whiteSpace=wrap;html=1;boundedLbl=1;backgroundOutline=1;darkOpacity=0.05;darkOpacity2=0.1;size=10;" vertex="1" parent="1">
          <mxGeometry x="320" y="240" width="50" height="50" as="geometry" />
        </mxCell>
        <mxCell id="a2wgtuCniFXXvtAZj5P6-2" value="" style="shape=cube;whiteSpace=wrap;html=1;boundedLbl=1;backgroundOutline=1;darkOpacity=0.05;darkOpacity2=0.1;size=10;" vertex="1" parent="1">
          <mxGeometry x="280" y="240" width="50" height="50" as="geometry" />
        </mxCell>
        <mxCell id="a2wgtuCniFXXvtAZj5P6-3" value="" style="shape=cube;whiteSpace=wrap;html=1;boundedLbl=1;backgroundOutline=1;darkOpacity=0.05;darkOpacity2=0.1;size=10;" vertex="1" parent="1">
          <mxGeometry x="240" y="240" width="50" height="50" as="geometry" />
        </mxCell>
        <mxCell id="a2wgtuCniFXXvtAZj5P6-4" value="" style="shape=cube;whiteSpace=wrap;html=1;boundedLbl=1;backgroundOutline=1;darkOpacity=0.05;darkOpacity2=0.1;size=10;" vertex="1" parent="1">
          <mxGeometry x="320" y="200" width="50" height="50" as="geometry" />
        </mxCell>
        <mxCell id="a2wgtuCniFXXvtAZj5P6-5" value="" style="shape=cube;whiteSpace=wrap;html=1;boundedLbl=1;backgroundOutline=1;darkOpacity=0.05;darkOpacity2=0.1;size=10;" vertex="1" parent="1">
          <mxGeometry x="280" y="200" width="50" height="50" as="geometry" />
        </mxCell>
        <mxCell id="a2wgtuCniFXXvtAZj5P6-6" value="" style="shape=cube;whiteSpace=wrap;html=1;boundedLbl=1;backgroundOutline=1;darkOpacity=0.05;darkOpacity2=0.1;size=10;" vertex="1" parent="1">
          <mxGeometry x="240" y="200" width="50" height="50" as="geometry" />
        </mxCell>
        <mxCell id="a2wgtuCniFXXvtAZj5P6-7" value="" style="shape=cube;whiteSpace=wrap;html=1;boundedLbl=1;backgroundOutline=1;darkOpacity=0.05;darkOpacity2=0.1;size=10;" vertex="1" parent="1">
          <mxGeometry x="320" y="160" width="50" height="50" as="geometry" />
        </mxCell>
        <mxCell id="a2wgtuCniFXXvtAZj5P6-8" value="" style="shape=cube;whiteSpace=wrap;html=1;boundedLbl=1;backgroundOutline=1;darkOpacity=0.05;darkOpacity2=0.1;size=10;" vertex="1" parent="1">
          <mxGeometry x="280" y="160" width="50" height="50" as="geometry" />
        </mxCell>
        <mxCell id="a2wgtuCniFXXvtAZj5P6-9" value="" style="shape=cube;whiteSpace=wrap;html=1;boundedLbl=1;backgroundOutline=1;darkOpacity=0.05;darkOpacity2=0.1;size=10;" vertex="1" parent="1">
          <mxGeometry x="240" y="160" width="50" height="50" as="geometry" />
        </mxCell>
        <mxCell id="a2wgtuCniFXXvtAZj5P6-31" value="" style="shape=cube;whiteSpace=wrap;html=1;boundedLbl=1;backgroundOutline=1;darkOpacity=0.05;darkOpacity2=0.1;size=10;" vertex="1" parent="1">
          <mxGeometry x="200" y="280" width="50" height="50" as="geometry" />
        </mxCell>
        <mxCell id="a2wgtuCniFXXvtAZj5P6-32" value="" style="shape=cube;whiteSpace=wrap;html=1;boundedLbl=1;backgroundOutline=1;darkOpacity=0.05;darkOpacity2=0.1;size=10;" vertex="1" parent="1">
          <mxGeometry x="200" y="240" width="50" height="50" as="geometry" />
        </mxCell>
        <mxCell id="a2wgtuCniFXXvtAZj5P6-33" value="" style="shape=cube;whiteSpace=wrap;html=1;boundedLbl=1;backgroundOutline=1;darkOpacity=0.05;darkOpacity2=0.1;size=10;" vertex="1" parent="1">
          <mxGeometry x="200" y="200" width="50" height="50" as="geometry" />
        </mxCell>
        <mxCell id="a2wgtuCniFXXvtAZj5P6-34" value="" style="shape=cube;whiteSpace=wrap;html=1;boundedLbl=1;backgroundOutline=1;darkOpacity=0.05;darkOpacity2=0.1;size=10;" vertex="1" parent="1">
          <mxGeometry x="200" y="160" width="50" height="50" as="geometry" />
        </mxCell>
        <mxCell id="a2wgtuCniFXXvtAZj5P6-40" value="" style="shape=cube;whiteSpace=wrap;html=1;boundedLbl=1;backgroundOutline=1;darkOpacity=0.05;darkOpacity2=0.1;size=10;" vertex="1" parent="1">
          <mxGeometry x="320" y="120" width="50" height="50" as="geometry" />
        </mxCell>
        <mxCell id="a2wgtuCniFXXvtAZj5P6-41" value="" style="shape=cube;whiteSpace=wrap;html=1;boundedLbl=1;backgroundOutline=1;darkOpacity=0.05;darkOpacity2=0.1;size=10;" vertex="1" parent="1">
          <mxGeometry x="280" y="120" width="50" height="50" as="geometry" />
        </mxCell>
        <mxCell id="a2wgtuCniFXXvtAZj5P6-42" value="" style="shape=cube;whiteSpace=wrap;html=1;boundedLbl=1;backgroundOutline=1;darkOpacity=0.05;darkOpacity2=0.1;size=10;" vertex="1" parent="1">
          <mxGeometry x="240" y="120" width="50" height="50" as="geometry" />
        </mxCell>
        <mxCell id="a2wgtuCniFXXvtAZj5P6-43" value="" style="shape=cube;whiteSpace=wrap;html=1;boundedLbl=1;backgroundOutline=1;darkOpacity=0.05;darkOpacity2=0.1;size=10;" vertex="1" parent="1">
          <mxGeometry x="200" y="120" width="50" height="50" as="geometry" />
        </mxCell>
        <mxCell id="a2wgtuCniFXXvtAZj5P6-44" value="" style="shape=cube;whiteSpace=wrap;html=1;boundedLbl=1;backgroundOutline=1;darkOpacity=0.05;darkOpacity2=0.1;size=10;" vertex="1" parent="1">
          <mxGeometry x="160" y="280" width="50" height="50" as="geometry" />
        </mxCell>
        <mxCell id="a2wgtuCniFXXvtAZj5P6-45" value="" style="shape=cube;whiteSpace=wrap;html=1;boundedLbl=1;backgroundOutline=1;darkOpacity=0.05;darkOpacity2=0.1;size=10;" vertex="1" parent="1">
          <mxGeometry x="160" y="240" width="50" height="50" as="geometry" />
        </mxCell>
        <mxCell id="a2wgtuCniFXXvtAZj5P6-46" value="" style="shape=cube;whiteSpace=wrap;html=1;boundedLbl=1;backgroundOutline=1;darkOpacity=0.05;darkOpacity2=0.1;size=10;" vertex="1" parent="1">
          <mxGeometry x="160" y="200" width="50" height="50" as="geometry" />
        </mxCell>
        <mxCell id="a2wgtuCniFXXvtAZj5P6-47" value="" style="shape=cube;whiteSpace=wrap;html=1;boundedLbl=1;backgroundOutline=1;darkOpacity=0.05;darkOpacity2=0.1;size=10;" vertex="1" parent="1">
          <mxGeometry x="160" y="160" width="50" height="50" as="geometry" />
        </mxCell>
        <mxCell id="a2wgtuCniFXXvtAZj5P6-48" value="" style="shape=cube;whiteSpace=wrap;html=1;boundedLbl=1;backgroundOutline=1;darkOpacity=0.05;darkOpacity2=0.1;size=10;" vertex="1" parent="1">
          <mxGeometry x="160" y="120" width="50" height="50" as="geometry" />
        </mxCell>
        <mxCell id="a2wgtuCniFXXvtAZj5P6-49" value="" style="shape=cube;whiteSpace=wrap;html=1;boundedLbl=1;backgroundOutline=1;darkOpacity=0.05;darkOpacity2=0.1;size=10;" vertex="1" parent="1">
          <mxGeometry x="330" y="290" width="50" height="50" as="geometry" />
        </mxCell>
        <mxCell id="a2wgtuCniFXXvtAZj5P6-50" value="" style="shape=cube;whiteSpace=wrap;html=1;boundedLbl=1;backgroundOutline=1;darkOpacity=0.05;darkOpacity2=0.1;size=10;" vertex="1" parent="1">
          <mxGeometry x="290" y="290" width="50" height="50" as="geometry" />
        </mxCell>
        <mxCell id="a2wgtuCniFXXvtAZj5P6-51" value="" style="shape=cube;whiteSpace=wrap;html=1;boundedLbl=1;backgroundOutline=1;darkOpacity=0.05;darkOpacity2=0.1;size=10;" vertex="1" parent="1">
          <mxGeometry x="250" y="290" width="50" height="50" as="geometry" />
        </mxCell>
        <mxCell id="a2wgtuCniFXXvtAZj5P6-52" value="" style="shape=cube;whiteSpace=wrap;html=1;boundedLbl=1;backgroundOutline=1;darkOpacity=0.05;darkOpacity2=0.1;size=10;" vertex="1" parent="1">
          <mxGeometry x="330" y="250" width="50" height="50" as="geometry" />
        </mxCell>
        <mxCell id="a2wgtuCniFXXvtAZj5P6-53" value="" style="shape=cube;whiteSpace=wrap;html=1;boundedLbl=1;backgroundOutline=1;darkOpacity=0.05;darkOpacity2=0.1;size=10;" vertex="1" parent="1">
          <mxGeometry x="290" y="250" width="50" height="50" as="geometry" />
        </mxCell>
        <mxCell id="a2wgtuCniFXXvtAZj5P6-54" value="" style="shape=cube;whiteSpace=wrap;html=1;boundedLbl=1;backgroundOutline=1;darkOpacity=0.05;darkOpacity2=0.1;size=10;" vertex="1" parent="1">
          <mxGeometry x="250" y="250" width="50" height="50" as="geometry" />
        </mxCell>
        <mxCell id="a2wgtuCniFXXvtAZj5P6-55" value="" style="shape=cube;whiteSpace=wrap;html=1;boundedLbl=1;backgroundOutline=1;darkOpacity=0.05;darkOpacity2=0.1;size=10;" vertex="1" parent="1">
          <mxGeometry x="330" y="210" width="50" height="50" as="geometry" />
        </mxCell>
        <mxCell id="a2wgtuCniFXXvtAZj5P6-56" value="" style="shape=cube;whiteSpace=wrap;html=1;boundedLbl=1;backgroundOutline=1;darkOpacity=0.05;darkOpacity2=0.1;size=10;" vertex="1" parent="1">
          <mxGeometry x="290" y="210" width="50" height="50" as="geometry" />
        </mxCell>
        <mxCell id="a2wgtuCniFXXvtAZj5P6-57" value="" style="shape=cube;whiteSpace=wrap;html=1;boundedLbl=1;backgroundOutline=1;darkOpacity=0.05;darkOpacity2=0.1;size=10;" vertex="1" parent="1">
          <mxGeometry x="250" y="210" width="50" height="50" as="geometry" />
        </mxCell>
        <mxCell id="a2wgtuCniFXXvtAZj5P6-58" value="" style="shape=cube;whiteSpace=wrap;html=1;boundedLbl=1;backgroundOutline=1;darkOpacity=0.05;darkOpacity2=0.1;size=10;" vertex="1" parent="1">
          <mxGeometry x="330" y="170" width="50" height="50" as="geometry" />
        </mxCell>
        <mxCell id="a2wgtuCniFXXvtAZj5P6-59" value="" style="shape=cube;whiteSpace=wrap;html=1;boundedLbl=1;backgroundOutline=1;darkOpacity=0.05;darkOpacity2=0.1;size=10;" vertex="1" parent="1">
          <mxGeometry x="290" y="170" width="50" height="50" as="geometry" />
        </mxCell>
        <mxCell id="a2wgtuCniFXXvtAZj5P6-60" value="" style="shape=cube;whiteSpace=wrap;html=1;boundedLbl=1;backgroundOutline=1;darkOpacity=0.05;darkOpacity2=0.1;size=10;" vertex="1" parent="1">
          <mxGeometry x="250" y="170" width="50" height="50" as="geometry" />
        </mxCell>
        <mxCell id="a2wgtuCniFXXvtAZj5P6-61" value="" style="shape=cube;whiteSpace=wrap;html=1;boundedLbl=1;backgroundOutline=1;darkOpacity=0.05;darkOpacity2=0.1;size=10;" vertex="1" parent="1">
          <mxGeometry x="210" y="290" width="50" height="50" as="geometry" />
        </mxCell>
        <mxCell id="a2wgtuCniFXXvtAZj5P6-62" value="" style="shape=cube;whiteSpace=wrap;html=1;boundedLbl=1;backgroundOutline=1;darkOpacity=0.05;darkOpacity2=0.1;size=10;" vertex="1" parent="1">
          <mxGeometry x="210" y="250" width="50" height="50" as="geometry" />
        </mxCell>
        <mxCell id="a2wgtuCniFXXvtAZj5P6-63" value="" style="shape=cube;whiteSpace=wrap;html=1;boundedLbl=1;backgroundOutline=1;darkOpacity=0.05;darkOpacity2=0.1;size=10;" vertex="1" parent="1">
          <mxGeometry x="210" y="210" width="50" height="50" as="geometry" />
        </mxCell>
        <mxCell id="a2wgtuCniFXXvtAZj5P6-64" value="" style="shape=cube;whiteSpace=wrap;html=1;boundedLbl=1;backgroundOutline=1;darkOpacity=0.05;darkOpacity2=0.1;size=10;" vertex="1" parent="1">
          <mxGeometry x="210" y="170" width="50" height="50" as="geometry" />
        </mxCell>
        <mxCell id="a2wgtuCniFXXvtAZj5P6-65" value="" style="shape=cube;whiteSpace=wrap;html=1;boundedLbl=1;backgroundOutline=1;darkOpacity=0.05;darkOpacity2=0.1;size=10;" vertex="1" parent="1">
          <mxGeometry x="330" y="130" width="50" height="50" as="geometry" />
        </mxCell>
        <mxCell id="a2wgtuCniFXXvtAZj5P6-66" value="" style="shape=cube;whiteSpace=wrap;html=1;boundedLbl=1;backgroundOutline=1;darkOpacity=0.05;darkOpacity2=0.1;size=10;" vertex="1" parent="1">
          <mxGeometry x="290" y="130" width="50" height="50" as="geometry" />
        </mxCell>
        <mxCell id="a2wgtuCniFXXvtAZj5P6-67" value="" style="shape=cube;whiteSpace=wrap;html=1;boundedLbl=1;backgroundOutline=1;darkOpacity=0.05;darkOpacity2=0.1;size=10;" vertex="1" parent="1">
          <mxGeometry x="250" y="130" width="50" height="50" as="geometry" />
        </mxCell>
        <mxCell id="a2wgtuCniFXXvtAZj5P6-68" value="" style="shape=cube;whiteSpace=wrap;html=1;boundedLbl=1;backgroundOutline=1;darkOpacity=0.05;darkOpacity2=0.1;size=10;" vertex="1" parent="1">
          <mxGeometry x="210" y="130" width="50" height="50" as="geometry" />
        </mxCell>
        <mxCell id="a2wgtuCniFXXvtAZj5P6-69" value="" style="shape=cube;whiteSpace=wrap;html=1;boundedLbl=1;backgroundOutline=1;darkOpacity=0.05;darkOpacity2=0.1;size=10;" vertex="1" parent="1">
          <mxGeometry x="170" y="290" width="50" height="50" as="geometry" />
        </mxCell>
        <mxCell id="a2wgtuCniFXXvtAZj5P6-70" value="" style="shape=cube;whiteSpace=wrap;html=1;boundedLbl=1;backgroundOutline=1;darkOpacity=0.05;darkOpacity2=0.1;size=10;" vertex="1" parent="1">
          <mxGeometry x="170" y="250" width="50" height="50" as="geometry" />
        </mxCell>
        <mxCell id="a2wgtuCniFXXvtAZj5P6-71" value="" style="shape=cube;whiteSpace=wrap;html=1;boundedLbl=1;backgroundOutline=1;darkOpacity=0.05;darkOpacity2=0.1;size=10;" vertex="1" parent="1">
          <mxGeometry x="170" y="210" width="50" height="50" as="geometry" />
        </mxCell>
        <mxCell id="a2wgtuCniFXXvtAZj5P6-72" value="" style="shape=cube;whiteSpace=wrap;html=1;boundedLbl=1;backgroundOutline=1;darkOpacity=0.05;darkOpacity2=0.1;size=10;" vertex="1" parent="1">
          <mxGeometry x="170" y="170" width="50" height="50" as="geometry" />
        </mxCell>
        <mxCell id="a2wgtuCniFXXvtAZj5P6-73" value="" style="shape=cube;whiteSpace=wrap;html=1;boundedLbl=1;backgroundOutline=1;darkOpacity=0.05;darkOpacity2=0.1;size=10;" vertex="1" parent="1">
          <mxGeometry x="170" y="130" width="50" height="50" as="geometry" />
        </mxCell>
        <mxCell id="a2wgtuCniFXXvtAZj5P6-74" value="" style="shape=cube;whiteSpace=wrap;html=1;boundedLbl=1;backgroundOutline=1;darkOpacity=0.05;darkOpacity2=0.1;size=10;" vertex="1" parent="1">
          <mxGeometry x="340" y="300" width="50" height="50" as="geometry" />
        </mxCell>
        <mxCell id="a2wgtuCniFXXvtAZj5P6-75" value="" style="shape=cube;whiteSpace=wrap;html=1;boundedLbl=1;backgroundOutline=1;darkOpacity=0.05;darkOpacity2=0.1;size=10;" vertex="1" parent="1">
          <mxGeometry x="300" y="300" width="50" height="50" as="geometry" />
        </mxCell>
        <mxCell id="a2wgtuCniFXXvtAZj5P6-76" value="" style="shape=cube;whiteSpace=wrap;html=1;boundedLbl=1;backgroundOutline=1;darkOpacity=0.05;darkOpacity2=0.1;size=10;" vertex="1" parent="1">
          <mxGeometry x="260" y="300" width="50" height="50" as="geometry" />
        </mxCell>
        <mxCell id="a2wgtuCniFXXvtAZj5P6-77" value="" style="shape=cube;whiteSpace=wrap;html=1;boundedLbl=1;backgroundOutline=1;darkOpacity=0.05;darkOpacity2=0.1;size=10;" vertex="1" parent="1">
          <mxGeometry x="340" y="260" width="50" height="50" as="geometry" />
        </mxCell>
        <mxCell id="a2wgtuCniFXXvtAZj5P6-78" value="" style="shape=cube;whiteSpace=wrap;html=1;boundedLbl=1;backgroundOutline=1;darkOpacity=0.05;darkOpacity2=0.1;size=10;" vertex="1" parent="1">
          <mxGeometry x="300" y="260" width="50" height="50" as="geometry" />
        </mxCell>
        <mxCell id="a2wgtuCniFXXvtAZj5P6-79" value="" style="shape=cube;whiteSpace=wrap;html=1;boundedLbl=1;backgroundOutline=1;darkOpacity=0.05;darkOpacity2=0.1;size=10;" vertex="1" parent="1">
          <mxGeometry x="260" y="260" width="50" height="50" as="geometry" />
        </mxCell>
        <mxCell id="a2wgtuCniFXXvtAZj5P6-80" value="" style="shape=cube;whiteSpace=wrap;html=1;boundedLbl=1;backgroundOutline=1;darkOpacity=0.05;darkOpacity2=0.1;size=10;" vertex="1" parent="1">
          <mxGeometry x="340" y="220" width="50" height="50" as="geometry" />
        </mxCell>
        <mxCell id="a2wgtuCniFXXvtAZj5P6-81" value="" style="shape=cube;whiteSpace=wrap;html=1;boundedLbl=1;backgroundOutline=1;darkOpacity=0.05;darkOpacity2=0.1;size=10;" vertex="1" parent="1">
          <mxGeometry x="300" y="220" width="50" height="50" as="geometry" />
        </mxCell>
        <mxCell id="a2wgtuCniFXXvtAZj5P6-82" value="" style="shape=cube;whiteSpace=wrap;html=1;boundedLbl=1;backgroundOutline=1;darkOpacity=0.05;darkOpacity2=0.1;size=10;" vertex="1" parent="1">
          <mxGeometry x="260" y="220" width="50" height="50" as="geometry" />
        </mxCell>
        <mxCell id="a2wgtuCniFXXvtAZj5P6-83" value="" style="shape=cube;whiteSpace=wrap;html=1;boundedLbl=1;backgroundOutline=1;darkOpacity=0.05;darkOpacity2=0.1;size=10;" vertex="1" parent="1">
          <mxGeometry x="340" y="180" width="50" height="50" as="geometry" />
        </mxCell>
        <mxCell id="a2wgtuCniFXXvtAZj5P6-84" value="" style="shape=cube;whiteSpace=wrap;html=1;boundedLbl=1;backgroundOutline=1;darkOpacity=0.05;darkOpacity2=0.1;size=10;" vertex="1" parent="1">
          <mxGeometry x="300" y="180" width="50" height="50" as="geometry" />
        </mxCell>
        <mxCell id="a2wgtuCniFXXvtAZj5P6-85" value="" style="shape=cube;whiteSpace=wrap;html=1;boundedLbl=1;backgroundOutline=1;darkOpacity=0.05;darkOpacity2=0.1;size=10;" vertex="1" parent="1">
          <mxGeometry x="260" y="180" width="50" height="50" as="geometry" />
        </mxCell>
        <mxCell id="a2wgtuCniFXXvtAZj5P6-86" value="" style="shape=cube;whiteSpace=wrap;html=1;boundedLbl=1;backgroundOutline=1;darkOpacity=0.05;darkOpacity2=0.1;size=10;" vertex="1" parent="1">
          <mxGeometry x="220" y="300" width="50" height="50" as="geometry" />
        </mxCell>
        <mxCell id="a2wgtuCniFXXvtAZj5P6-87" value="" style="shape=cube;whiteSpace=wrap;html=1;boundedLbl=1;backgroundOutline=1;darkOpacity=0.05;darkOpacity2=0.1;size=10;" vertex="1" parent="1">
          <mxGeometry x="220" y="260" width="50" height="50" as="geometry" />
        </mxCell>
        <mxCell id="a2wgtuCniFXXvtAZj5P6-88" value="" style="shape=cube;whiteSpace=wrap;html=1;boundedLbl=1;backgroundOutline=1;darkOpacity=0.05;darkOpacity2=0.1;size=10;" vertex="1" parent="1">
          <mxGeometry x="220" y="220" width="50" height="50" as="geometry" />
        </mxCell>
        <mxCell id="a2wgtuCniFXXvtAZj5P6-89" value="" style="shape=cube;whiteSpace=wrap;html=1;boundedLbl=1;backgroundOutline=1;darkOpacity=0.05;darkOpacity2=0.1;size=10;" vertex="1" parent="1">
          <mxGeometry x="220" y="180" width="50" height="50" as="geometry" />
        </mxCell>
        <mxCell id="a2wgtuCniFXXvtAZj5P6-90" value="" style="shape=cube;whiteSpace=wrap;html=1;boundedLbl=1;backgroundOutline=1;darkOpacity=0.05;darkOpacity2=0.1;size=10;" vertex="1" parent="1">
          <mxGeometry x="340" y="140" width="50" height="50" as="geometry" />
        </mxCell>
        <mxCell id="a2wgtuCniFXXvtAZj5P6-91" value="" style="shape=cube;whiteSpace=wrap;html=1;boundedLbl=1;backgroundOutline=1;darkOpacity=0.05;darkOpacity2=0.1;size=10;" vertex="1" parent="1">
          <mxGeometry x="300" y="140" width="50" height="50" as="geometry" />
        </mxCell>
        <mxCell id="a2wgtuCniFXXvtAZj5P6-92" value="" style="shape=cube;whiteSpace=wrap;html=1;boundedLbl=1;backgroundOutline=1;darkOpacity=0.05;darkOpacity2=0.1;size=10;" vertex="1" parent="1">
          <mxGeometry x="260" y="140" width="50" height="50" as="geometry" />
        </mxCell>
        <mxCell id="a2wgtuCniFXXvtAZj5P6-93" value="" style="shape=cube;whiteSpace=wrap;html=1;boundedLbl=1;backgroundOutline=1;darkOpacity=0.05;darkOpacity2=0.1;size=10;" vertex="1" parent="1">
          <mxGeometry x="220" y="140" width="50" height="50" as="geometry" />
        </mxCell>
        <mxCell id="a2wgtuCniFXXvtAZj5P6-94" value="" style="shape=cube;whiteSpace=wrap;html=1;boundedLbl=1;backgroundOutline=1;darkOpacity=0.05;darkOpacity2=0.1;size=10;" vertex="1" parent="1">
          <mxGeometry x="180" y="300" width="50" height="50" as="geometry" />
        </mxCell>
        <mxCell id="a2wgtuCniFXXvtAZj5P6-95" value="" style="shape=cube;whiteSpace=wrap;html=1;boundedLbl=1;backgroundOutline=1;darkOpacity=0.05;darkOpacity2=0.1;size=10;" vertex="1" parent="1">
          <mxGeometry x="180" y="260" width="50" height="50" as="geometry" />
        </mxCell>
        <mxCell id="a2wgtuCniFXXvtAZj5P6-96" value="" style="shape=cube;whiteSpace=wrap;html=1;boundedLbl=1;backgroundOutline=1;darkOpacity=0.05;darkOpacity2=0.1;size=10;" vertex="1" parent="1">
          <mxGeometry x="180" y="220" width="50" height="50" as="geometry" />
        </mxCell>
        <mxCell id="a2wgtuCniFXXvtAZj5P6-97" value="" style="shape=cube;whiteSpace=wrap;html=1;boundedLbl=1;backgroundOutline=1;darkOpacity=0.05;darkOpacity2=0.1;size=10;" vertex="1" parent="1">
          <mxGeometry x="180" y="180" width="50" height="50" as="geometry" />
        </mxCell>
        <mxCell id="a2wgtuCniFXXvtAZj5P6-98" value="" style="shape=cube;whiteSpace=wrap;html=1;boundedLbl=1;backgroundOutline=1;darkOpacity=0.05;darkOpacity2=0.1;size=10;" vertex="1" parent="1">
          <mxGeometry x="180" y="140" width="50" height="50" as="geometry" />
        </mxCell>
        <mxCell id="a2wgtuCniFXXvtAZj5P6-103" value="" style="group" vertex="1" connectable="0" parent="1">
          <mxGeometry x="520" y="160" width="90" height="90" as="geometry" />
        </mxCell>
        <mxCell id="a2wgtuCniFXXvtAZj5P6-102" value="" style="shape=cube;whiteSpace=wrap;html=1;boundedLbl=1;backgroundOutline=1;darkOpacity=0.05;darkOpacity2=0.1;size=10;" vertex="1" parent="a2wgtuCniFXXvtAZj5P6-103">
          <mxGeometry x="40" y="40" width="50" height="50" as="geometry" />
        </mxCell>
        <mxCell id="a2wgtuCniFXXvtAZj5P6-101" value="" style="shape=cube;whiteSpace=wrap;html=1;boundedLbl=1;backgroundOutline=1;darkOpacity=0.05;darkOpacity2=0.1;size=10;" vertex="1" parent="a2wgtuCniFXXvtAZj5P6-103">
          <mxGeometry y="40" width="50" height="50" as="geometry" />
        </mxCell>
        <mxCell id="a2wgtuCniFXXvtAZj5P6-99" value="" style="shape=cube;whiteSpace=wrap;html=1;boundedLbl=1;backgroundOutline=1;darkOpacity=0.05;darkOpacity2=0.1;size=10;" vertex="1" parent="a2wgtuCniFXXvtAZj5P6-103">
          <mxGeometry x="40" width="50" height="50" as="geometry" />
        </mxCell>
        <mxCell id="a2wgtuCniFXXvtAZj5P6-100" value="" style="shape=cube;whiteSpace=wrap;html=1;boundedLbl=1;backgroundOutline=1;darkOpacity=0.05;darkOpacity2=0.1;size=10;" vertex="1" parent="a2wgtuCniFXXvtAZj5P6-103">
          <mxGeometry width="50" height="50" as="geometry" />
        </mxCell>
        <mxCell id="a2wgtuCniFXXvtAZj5P6-214" value="" style="group" vertex="1" connectable="0" parent="1">
          <mxGeometry x="160" y="480" width="210" height="210" as="geometry" />
        </mxCell>
        <mxCell id="a2wgtuCniFXXvtAZj5P6-179" value="" style="group" vertex="1" connectable="0" parent="a2wgtuCniFXXvtAZj5P6-214">
          <mxGeometry x="120" y="120" width="90" height="90" as="geometry" />
        </mxCell>
        <mxCell id="a2wgtuCniFXXvtAZj5P6-180" value="" style="shape=cube;whiteSpace=wrap;html=1;boundedLbl=1;backgroundOutline=1;darkOpacity=0.05;darkOpacity2=0.1;size=10;" vertex="1" parent="a2wgtuCniFXXvtAZj5P6-179">
          <mxGeometry x="40" y="40" width="50" height="50" as="geometry" />
        </mxCell>
        <mxCell id="a2wgtuCniFXXvtAZj5P6-181" value="" style="shape=cube;whiteSpace=wrap;html=1;boundedLbl=1;backgroundOutline=1;darkOpacity=0.05;darkOpacity2=0.1;size=10;" vertex="1" parent="a2wgtuCniFXXvtAZj5P6-179">
          <mxGeometry y="40" width="50" height="50" as="geometry" />
        </mxCell>
        <mxCell id="a2wgtuCniFXXvtAZj5P6-182" value="" style="shape=cube;whiteSpace=wrap;html=1;boundedLbl=1;backgroundOutline=1;darkOpacity=0.05;darkOpacity2=0.1;size=10;" vertex="1" parent="a2wgtuCniFXXvtAZj5P6-179">
          <mxGeometry x="40" width="50" height="50" as="geometry" />
        </mxCell>
        <mxCell id="a2wgtuCniFXXvtAZj5P6-183" value="" style="shape=cube;whiteSpace=wrap;html=1;boundedLbl=1;backgroundOutline=1;darkOpacity=0.05;darkOpacity2=0.1;size=10;" vertex="1" parent="a2wgtuCniFXXvtAZj5P6-179">
          <mxGeometry width="50" height="50" as="geometry" />
        </mxCell>
        <mxCell id="a2wgtuCniFXXvtAZj5P6-185" value="" style="shape=cube;whiteSpace=wrap;html=1;boundedLbl=1;backgroundOutline=1;darkOpacity=0.05;darkOpacity2=0.1;size=10;" vertex="1" parent="a2wgtuCniFXXvtAZj5P6-214">
          <mxGeometry x="80" y="160" width="50" height="50" as="geometry" />
        </mxCell>
        <mxCell id="a2wgtuCniFXXvtAZj5P6-184" value="" style="shape=cube;whiteSpace=wrap;html=1;boundedLbl=1;backgroundOutline=1;darkOpacity=0.05;darkOpacity2=0.1;size=10;" vertex="1" parent="a2wgtuCniFXXvtAZj5P6-214">
          <mxGeometry x="80" y="120" width="50" height="50" as="geometry" />
        </mxCell>
        <mxCell id="a2wgtuCniFXXvtAZj5P6-191" value="" style="shape=cube;whiteSpace=wrap;html=1;boundedLbl=1;backgroundOutline=1;darkOpacity=0.05;darkOpacity2=0.1;size=10;" vertex="1" parent="a2wgtuCniFXXvtAZj5P6-214">
          <mxGeometry x="160" y="80" width="50" height="50" as="geometry" />
        </mxCell>
        <mxCell id="a2wgtuCniFXXvtAZj5P6-192" value="" style="shape=cube;whiteSpace=wrap;html=1;boundedLbl=1;backgroundOutline=1;darkOpacity=0.05;darkOpacity2=0.1;size=10;" vertex="1" parent="a2wgtuCniFXXvtAZj5P6-214">
          <mxGeometry x="120" y="80" width="50" height="50" as="geometry" />
        </mxCell>
        <mxCell id="a2wgtuCniFXXvtAZj5P6-193" value="" style="shape=cube;whiteSpace=wrap;html=1;boundedLbl=1;backgroundOutline=1;darkOpacity=0.05;darkOpacity2=0.1;size=10;" vertex="1" parent="a2wgtuCniFXXvtAZj5P6-214">
          <mxGeometry x="80" y="80" width="50" height="50" as="geometry" />
        </mxCell>
        <mxCell id="a2wgtuCniFXXvtAZj5P6-194" value="" style="shape=cube;whiteSpace=wrap;html=1;boundedLbl=1;backgroundOutline=1;darkOpacity=0.05;darkOpacity2=0.1;size=10;" vertex="1" parent="a2wgtuCniFXXvtAZj5P6-214">
          <mxGeometry x="40" y="160" width="50" height="50" as="geometry" />
        </mxCell>
        <mxCell id="a2wgtuCniFXXvtAZj5P6-195" value="" style="shape=cube;whiteSpace=wrap;html=1;boundedLbl=1;backgroundOutline=1;darkOpacity=0.05;darkOpacity2=0.1;size=10;" vertex="1" parent="a2wgtuCniFXXvtAZj5P6-214">
          <mxGeometry x="40" y="120" width="50" height="50" as="geometry" />
        </mxCell>
        <mxCell id="a2wgtuCniFXXvtAZj5P6-196" value="" style="shape=cube;whiteSpace=wrap;html=1;boundedLbl=1;backgroundOutline=1;darkOpacity=0.05;darkOpacity2=0.1;size=10;" vertex="1" parent="a2wgtuCniFXXvtAZj5P6-214">
          <mxGeometry x="40" y="80" width="50" height="50" as="geometry" />
        </mxCell>
        <mxCell id="a2wgtuCniFXXvtAZj5P6-201" value="" style="shape=cube;whiteSpace=wrap;html=1;boundedLbl=1;backgroundOutline=1;darkOpacity=0.05;darkOpacity2=0.1;size=10;" vertex="1" parent="a2wgtuCniFXXvtAZj5P6-214">
          <mxGeometry x="160" y="40" width="50" height="50" as="geometry" />
        </mxCell>
        <mxCell id="a2wgtuCniFXXvtAZj5P6-202" value="" style="shape=cube;whiteSpace=wrap;html=1;boundedLbl=1;backgroundOutline=1;darkOpacity=0.05;darkOpacity2=0.1;size=10;" vertex="1" parent="a2wgtuCniFXXvtAZj5P6-214">
          <mxGeometry x="120" y="40" width="50" height="50" as="geometry" />
        </mxCell>
        <mxCell id="a2wgtuCniFXXvtAZj5P6-203" value="" style="shape=cube;whiteSpace=wrap;html=1;boundedLbl=1;backgroundOutline=1;darkOpacity=0.05;darkOpacity2=0.1;size=10;" vertex="1" parent="a2wgtuCniFXXvtAZj5P6-214">
          <mxGeometry x="80" y="40" width="50" height="50" as="geometry" />
        </mxCell>
        <mxCell id="a2wgtuCniFXXvtAZj5P6-204" value="" style="shape=cube;whiteSpace=wrap;html=1;boundedLbl=1;backgroundOutline=1;darkOpacity=0.05;darkOpacity2=0.1;size=10;fillColor=#FFCCCC;" vertex="1" parent="a2wgtuCniFXXvtAZj5P6-214">
          <mxGeometry x="40" y="40" width="50" height="50" as="geometry" />
        </mxCell>
        <mxCell id="a2wgtuCniFXXvtAZj5P6-205" value="" style="shape=cube;whiteSpace=wrap;html=1;boundedLbl=1;backgroundOutline=1;darkOpacity=0.05;darkOpacity2=0.1;size=10;" vertex="1" parent="a2wgtuCniFXXvtAZj5P6-214">
          <mxGeometry y="160" width="50" height="50" as="geometry" />
        </mxCell>
        <mxCell id="a2wgtuCniFXXvtAZj5P6-206" value="" style="shape=cube;whiteSpace=wrap;html=1;boundedLbl=1;backgroundOutline=1;darkOpacity=0.05;darkOpacity2=0.1;size=10;" vertex="1" parent="a2wgtuCniFXXvtAZj5P6-214">
          <mxGeometry y="120" width="50" height="50" as="geometry" />
        </mxCell>
        <mxCell id="a2wgtuCniFXXvtAZj5P6-207" value="" style="shape=cube;whiteSpace=wrap;html=1;boundedLbl=1;backgroundOutline=1;darkOpacity=0.05;darkOpacity2=0.1;size=10;" vertex="1" parent="a2wgtuCniFXXvtAZj5P6-214">
          <mxGeometry y="80" width="50" height="50" as="geometry" />
        </mxCell>
        <mxCell id="a2wgtuCniFXXvtAZj5P6-208" value="" style="shape=cube;whiteSpace=wrap;html=1;boundedLbl=1;backgroundOutline=1;darkOpacity=0.05;darkOpacity2=0.1;size=10;fillColor=#FFCCCC;" vertex="1" parent="a2wgtuCniFXXvtAZj5P6-214">
          <mxGeometry y="40" width="50" height="50" as="geometry" />
        </mxCell>
        <mxCell id="a2wgtuCniFXXvtAZj5P6-209" value="" style="shape=cube;whiteSpace=wrap;html=1;boundedLbl=1;backgroundOutline=1;darkOpacity=0.05;darkOpacity2=0.1;size=10;" vertex="1" parent="a2wgtuCniFXXvtAZj5P6-214">
          <mxGeometry x="160" width="50" height="50" as="geometry" />
        </mxCell>
        <mxCell id="a2wgtuCniFXXvtAZj5P6-210" value="" style="shape=cube;whiteSpace=wrap;html=1;boundedLbl=1;backgroundOutline=1;darkOpacity=0.05;darkOpacity2=0.1;size=10;" vertex="1" parent="a2wgtuCniFXXvtAZj5P6-214">
          <mxGeometry x="120" width="50" height="50" as="geometry" />
        </mxCell>
        <mxCell id="a2wgtuCniFXXvtAZj5P6-211" value="" style="shape=cube;whiteSpace=wrap;html=1;boundedLbl=1;backgroundOutline=1;darkOpacity=0.05;darkOpacity2=0.1;size=10;" vertex="1" parent="a2wgtuCniFXXvtAZj5P6-214">
          <mxGeometry x="80" width="50" height="50" as="geometry" />
        </mxCell>
        <mxCell id="a2wgtuCniFXXvtAZj5P6-212" value="" style="shape=cube;whiteSpace=wrap;html=1;boundedLbl=1;backgroundOutline=1;darkOpacity=0.05;darkOpacity2=0.1;size=10;fillColor=#FFCCCC;" vertex="1" parent="a2wgtuCniFXXvtAZj5P6-214">
          <mxGeometry x="40" width="50" height="50" as="geometry" />
        </mxCell>
        <mxCell id="a2wgtuCniFXXvtAZj5P6-213" value="" style="shape=cube;whiteSpace=wrap;html=1;boundedLbl=1;backgroundOutline=1;darkOpacity=0.05;darkOpacity2=0.1;size=10;fillColor=#FFCCCC;" vertex="1" parent="a2wgtuCniFXXvtAZj5P6-214">
          <mxGeometry width="50" height="50" as="geometry" />
        </mxCell>
        <mxCell id="a2wgtuCniFXXvtAZj5P6-215" value="" style="group;fillColor=default;" vertex="1" connectable="0" parent="1">
          <mxGeometry x="440" y="520" width="90" height="90" as="geometry" />
        </mxCell>
        <mxCell id="a2wgtuCniFXXvtAZj5P6-216" value="" style="shape=cube;whiteSpace=wrap;html=1;boundedLbl=1;backgroundOutline=1;darkOpacity=0.05;darkOpacity2=0.1;size=10;fillColor=#FFCCCC;" vertex="1" parent="a2wgtuCniFXXvtAZj5P6-215">
          <mxGeometry x="40" y="40" width="50" height="50" as="geometry" />
        </mxCell>
        <mxCell id="a2wgtuCniFXXvtAZj5P6-217" value="" style="shape=cube;whiteSpace=wrap;html=1;boundedLbl=1;backgroundOutline=1;darkOpacity=0.05;darkOpacity2=0.1;size=10;fillColor=#FFCCCC;" vertex="1" parent="a2wgtuCniFXXvtAZj5P6-215">
          <mxGeometry y="40" width="50" height="50" as="geometry" />
        </mxCell>
        <mxCell id="a2wgtuCniFXXvtAZj5P6-218" value="" style="shape=cube;whiteSpace=wrap;html=1;boundedLbl=1;backgroundOutline=1;darkOpacity=0.05;darkOpacity2=0.1;size=10;fillColor=#FFCCCC;" vertex="1" parent="a2wgtuCniFXXvtAZj5P6-215">
          <mxGeometry x="40" width="50" height="50" as="geometry" />
        </mxCell>
        <mxCell id="a2wgtuCniFXXvtAZj5P6-219" value="" style="shape=cube;whiteSpace=wrap;html=1;boundedLbl=1;backgroundOutline=1;darkOpacity=0.05;darkOpacity2=0.1;size=10;fillColor=#FFCCCC;" vertex="1" parent="a2wgtuCniFXXvtAZj5P6-215">
          <mxGeometry width="50" height="50" as="geometry" />
        </mxCell>
        <mxCell id="a2wgtuCniFXXvtAZj5P6-230" value="" style="group" vertex="1" connectable="0" parent="1">
          <mxGeometry x="600" y="480" width="130" height="130" as="geometry" />
        </mxCell>
        <mxCell id="a2wgtuCniFXXvtAZj5P6-220" value="" style="group" vertex="1" connectable="0" parent="a2wgtuCniFXXvtAZj5P6-230">
          <mxGeometry x="40" y="40" width="90" height="90" as="geometry" />
        </mxCell>
        <mxCell id="a2wgtuCniFXXvtAZj5P6-221" value="" style="shape=cube;whiteSpace=wrap;html=1;boundedLbl=1;backgroundOutline=1;darkOpacity=0.05;darkOpacity2=0.1;size=10;" vertex="1" parent="a2wgtuCniFXXvtAZj5P6-220">
          <mxGeometry x="40" y="40" width="50" height="50" as="geometry" />
        </mxCell>
        <mxCell id="a2wgtuCniFXXvtAZj5P6-222" value="" style="shape=cube;whiteSpace=wrap;html=1;boundedLbl=1;backgroundOutline=1;darkOpacity=0.05;darkOpacity2=0.1;size=10;" vertex="1" parent="a2wgtuCniFXXvtAZj5P6-220">
          <mxGeometry y="40" width="50" height="50" as="geometry" />
        </mxCell>
        <mxCell id="a2wgtuCniFXXvtAZj5P6-223" value="" style="shape=cube;whiteSpace=wrap;html=1;boundedLbl=1;backgroundOutline=1;darkOpacity=0.05;darkOpacity2=0.1;size=10;" vertex="1" parent="a2wgtuCniFXXvtAZj5P6-220">
          <mxGeometry x="40" width="50" height="50" as="geometry" />
        </mxCell>
        <mxCell id="a2wgtuCniFXXvtAZj5P6-224" value="" style="shape=cube;whiteSpace=wrap;html=1;boundedLbl=1;backgroundOutline=1;darkOpacity=0.05;darkOpacity2=0.1;size=10;" vertex="1" parent="a2wgtuCniFXXvtAZj5P6-220">
          <mxGeometry width="50" height="50" as="geometry" />
        </mxCell>
        <mxCell id="a2wgtuCniFXXvtAZj5P6-225" value="" style="shape=cube;whiteSpace=wrap;html=1;boundedLbl=1;backgroundOutline=1;darkOpacity=0.05;darkOpacity2=0.1;size=10;" vertex="1" parent="a2wgtuCniFXXvtAZj5P6-230">
          <mxGeometry y="80" width="50" height="50" as="geometry" />
        </mxCell>
        <mxCell id="a2wgtuCniFXXvtAZj5P6-226" value="" style="shape=cube;whiteSpace=wrap;html=1;boundedLbl=1;backgroundOutline=1;darkOpacity=0.05;darkOpacity2=0.1;size=10;" vertex="1" parent="a2wgtuCniFXXvtAZj5P6-230">
          <mxGeometry y="40" width="50" height="50" as="geometry" />
        </mxCell>
        <mxCell id="a2wgtuCniFXXvtAZj5P6-227" value="" style="shape=cube;whiteSpace=wrap;html=1;boundedLbl=1;backgroundOutline=1;darkOpacity=0.05;darkOpacity2=0.1;size=10;" vertex="1" parent="a2wgtuCniFXXvtAZj5P6-230">
          <mxGeometry x="80" width="50" height="50" as="geometry" />
        </mxCell>
        <mxCell id="a2wgtuCniFXXvtAZj5P6-228" value="" style="shape=cube;whiteSpace=wrap;html=1;boundedLbl=1;backgroundOutline=1;darkOpacity=0.05;darkOpacity2=0.1;size=10;" vertex="1" parent="a2wgtuCniFXXvtAZj5P6-230">
          <mxGeometry x="40" width="50" height="50" as="geometry" />
        </mxCell>
        <mxCell id="a2wgtuCniFXXvtAZj5P6-229" value="" style="shape=cube;whiteSpace=wrap;html=1;boundedLbl=1;backgroundOutline=1;darkOpacity=0.05;darkOpacity2=0.1;size=10;fillColor=#FFCCCC;" vertex="1" parent="a2wgtuCniFXXvtAZj5P6-230">
          <mxGeometry width="50" height="50" as="geometry" />
        </mxCell>
        <mxCell id="a2wgtuCniFXXvtAZj5P6-234" value="" style="endArrow=none;html=1;rounded=0;fontColor=#03FF5F;exitX=0;exitY=0;exitDx=10;exitDy=50;exitPerimeter=0;" edge="1" parent="1" source="a2wgtuCniFXXvtAZj5P6-208">
          <mxGeometry width="50" height="50" relative="1" as="geometry">
            <mxPoint x="460" y="680" as="sourcePoint" />
            <mxPoint x="450" y="610" as="targetPoint" />
          </mxGeometry>
        </mxCell>
        <mxCell id="a2wgtuCniFXXvtAZj5P6-238" value="" style="endArrow=none;html=1;rounded=0;fontColor=#03FF5F;entryX=0;entryY=0;entryDx=50;entryDy=10;entryPerimeter=0;" edge="1" parent="1" target="a2wgtuCniFXXvtAZj5P6-218">
          <mxGeometry width="50" height="50" relative="1" as="geometry">
            <mxPoint x="250" y="490" as="sourcePoint" />
            <mxPoint x="390" y="430" as="targetPoint" />
          </mxGeometry>
        </mxCell>
      </root>
    </mxGraphModel>
  </diagram>
</mxfile>
